# xmcd
#
# Track frame offsets:
#	150
#	95185
#	98835
#	195010
#	198785
#
# Disc length: 3924 seconds
#
# Revision: 4
# Processed by: cddbd v1.5.2PL0 Copyright (c) Steve Scherf et al.
# Submitted via: audiograbber 1.83.01
#
DISCID=350f5205
DTITLE=Classic Care Musik für kritische Lebenslagen - CD 1 - Ängstliche Grundst
DTITLE=immung
DYEAR=1998
DGENRE=Meditation
TTITLE0=Tarrega: Recuerdos de la Alhambra, - Smetana: Die Moldau - Haydn: Konze
TTITLE0=rt Es-Dur 
TTITLE1=Regenwald
TTITLE2=Sibelius: Valse Triste - Beethoven: Romanze für Violine Nr. 2 in F-Dur 
TTITLE2=Op. 50 - Waldteufel: Die Schlittschuhläufer Op. 183, Walzer
TTITLE3=Regenwald
TTITLE4=Mozart: Rondo Alla Turca aus der Klaviersonate A-Dur - Rodrigo: Concier
TTITLE4=to de Aranjuez, 2 Satz - Delibes: Coppelia: Festtanz und Stundenwalzer
EXTD=
EXTT0=
EXTT1=
EXTT2=Sibelius: Valse Triste\nBeethoven: Romanze Nr.2 Op.50\nWaldteufel: Schlit
EXTT2=tschuhläufer 
EXTT3=
EXTT4=Mozart: Rondo alla Turca\nRodrigo: Concierto de Aranjuez, 2.Satz\nDelibes
EXTT4=: Coppelia-Festtanz und Stundenwalzer
PLAYORDER=
